%TF.GenerationSoftware,KiCad,Pcbnew,8.0.4*%
%TF.CreationDate,2024-10-20T23:48:37-07:00*%
%TF.ProjectId,MacSAO,4d616353-414f-42e6-9b69-6361645f7063,rev?*%
%TF.SameCoordinates,Original*%
%TF.FileFunction,Profile,NP*%
%FSLAX46Y46*%
G04 Gerber Fmt 4.6, Leading zero omitted, Abs format (unit mm)*
G04 Created by KiCad (PCBNEW 8.0.4) date 2024-10-20 23:48:37*
%MOMM*%
%LPD*%
G01*
G04 APERTURE LIST*
%TA.AperFunction,Profile*%
%ADD10C,0.047907*%
%TD*%
%TA.AperFunction,Profile*%
%ADD11C,0.049999*%
%TD*%
G04 APERTURE END LIST*
D10*
X175530161Y-76017052D02*
X175583686Y-76020936D01*
X175636389Y-76027335D01*
X175688209Y-76036185D01*
X175739081Y-76047425D01*
X175788943Y-76060993D01*
X175837730Y-76076828D01*
X175885379Y-76094867D01*
X175931828Y-76115048D01*
X175977013Y-76137309D01*
X176020870Y-76161590D01*
X176063336Y-76187826D01*
X176104348Y-76215958D01*
X176143843Y-76245922D01*
X176181757Y-76277658D01*
X176218026Y-76311102D01*
X176252588Y-76346193D01*
X176285380Y-76382870D01*
X176316337Y-76421069D01*
X176345397Y-76460730D01*
X176372495Y-76501791D01*
X176397570Y-76544189D01*
X176420557Y-76587862D01*
X176441394Y-76632749D01*
X176460016Y-76678788D01*
X176476361Y-76725917D01*
X176490364Y-76774074D01*
X176501964Y-76823196D01*
X176511097Y-76873223D01*
X176517698Y-76924092D01*
X176521705Y-76975741D01*
X176523055Y-77028109D01*
X176523055Y-88115488D01*
X176521705Y-88167872D01*
X176517698Y-88219571D01*
X176511097Y-88270521D01*
X176501964Y-88320658D01*
X176490364Y-88369918D01*
X176476361Y-88418237D01*
X176460016Y-88465550D01*
X176441394Y-88511793D01*
X176420557Y-88556902D01*
X176397570Y-88600814D01*
X176372495Y-88643464D01*
X176345397Y-88684787D01*
X176316337Y-88724720D01*
X176285380Y-88763198D01*
X176252588Y-88800157D01*
X176218026Y-88835534D01*
X176181757Y-88869264D01*
X176143843Y-88901282D01*
X176104348Y-88931525D01*
X176063336Y-88959929D01*
X176020870Y-88986429D01*
X175977013Y-89010961D01*
X175931828Y-89033461D01*
X175885379Y-89053866D01*
X175837730Y-89072110D01*
X175788943Y-89088129D01*
X175739081Y-89101860D01*
X175688209Y-89113239D01*
X175636389Y-89122200D01*
X175583686Y-89128681D01*
X175530161Y-89132616D01*
X175475879Y-89133942D01*
X159585223Y-89133942D01*
X159530924Y-89132616D01*
X159477349Y-89128681D01*
X159424563Y-89122200D01*
X159372633Y-89113239D01*
X159321623Y-89101860D01*
X159271600Y-89088129D01*
X159222629Y-89072110D01*
X159174775Y-89053866D01*
X159128104Y-89033461D01*
X159082682Y-89010961D01*
X159038573Y-88986429D01*
X158995845Y-88959929D01*
X158954562Y-88931525D01*
X158914789Y-88901282D01*
X158876593Y-88869264D01*
X158840039Y-88835534D01*
X158805192Y-88800157D01*
X158772118Y-88763198D01*
X158740883Y-88724720D01*
X158711553Y-88684787D01*
X158684191Y-88643464D01*
X158658865Y-88600814D01*
X158635640Y-88556902D01*
X158614582Y-88511793D01*
X158595755Y-88465550D01*
X158579226Y-88418237D01*
X158565060Y-88369918D01*
X158553322Y-88320658D01*
X158544079Y-88270521D01*
X158537396Y-88219571D01*
X158533337Y-88167872D01*
X158531970Y-88115488D01*
X158531970Y-77028109D01*
X158533168Y-76978978D01*
X158536726Y-76930447D01*
X158542590Y-76882571D01*
X158550707Y-76835402D01*
X158561024Y-76788991D01*
X158573487Y-76743393D01*
X158588043Y-76698660D01*
X158604638Y-76654845D01*
X158623218Y-76612000D01*
X158643731Y-76570178D01*
X158666122Y-76529432D01*
X158690339Y-76489815D01*
X158716328Y-76451380D01*
X158744035Y-76414178D01*
X158773407Y-76378264D01*
X158804391Y-76343689D01*
X158836932Y-76310507D01*
X158870978Y-76278770D01*
X158906475Y-76248531D01*
X158943370Y-76219842D01*
X158981609Y-76192757D01*
X159021138Y-76167329D01*
X159061905Y-76143609D01*
X159103855Y-76121652D01*
X159146936Y-76101508D01*
X159191093Y-76083232D01*
X159236274Y-76066876D01*
X159282425Y-76052493D01*
X159329492Y-76040136D01*
X159377422Y-76029856D01*
X159426162Y-76021708D01*
X159475658Y-76015744D01*
X175475879Y-76015744D01*
X175530161Y-76017052D01*
D11*
X179245161Y-72867052D02*
X179283775Y-72869971D01*
X179321814Y-72874780D01*
X179359229Y-72881431D01*
X179395976Y-72889876D01*
X179432007Y-72900070D01*
X179467274Y-72911965D01*
X179501732Y-72925513D01*
X179535334Y-72940669D01*
X179568032Y-72957384D01*
X179599780Y-72975613D01*
X179630531Y-72995308D01*
X179660239Y-73016421D01*
X179688856Y-73038907D01*
X179716335Y-73062717D01*
X179742630Y-73087806D01*
X179767695Y-73114125D01*
X179791481Y-73141629D01*
X179813943Y-73170269D01*
X179835034Y-73200000D01*
X179854706Y-73230773D01*
X179872913Y-73262543D01*
X179889608Y-73295261D01*
X179904745Y-73328882D01*
X179918276Y-73363357D01*
X179930155Y-73398641D01*
X179940335Y-73434685D01*
X179948769Y-73471444D01*
X179955410Y-73508869D01*
X179960212Y-73546915D01*
X179963127Y-73585533D01*
X179964109Y-73624678D01*
X179964109Y-102170737D01*
X179962839Y-102214728D01*
X179959077Y-102257984D01*
X179952898Y-102300444D01*
X179944375Y-102342051D01*
X179933581Y-102382747D01*
X179920591Y-102422474D01*
X179905478Y-102461174D01*
X179888316Y-102498788D01*
X179869178Y-102535259D01*
X179848138Y-102570527D01*
X179825271Y-102604536D01*
X179800648Y-102637227D01*
X179774346Y-102668542D01*
X179746436Y-102698423D01*
X179716993Y-102726811D01*
X179686090Y-102753649D01*
X179686090Y-105851649D01*
X179685333Y-105881782D01*
X179683086Y-105911510D01*
X179679385Y-105940798D01*
X179674265Y-105969607D01*
X179667765Y-105997903D01*
X179659918Y-106025650D01*
X179650763Y-106052810D01*
X179640334Y-106079348D01*
X179628668Y-106105228D01*
X179615801Y-106130414D01*
X179601770Y-106154868D01*
X179586611Y-106178556D01*
X179570359Y-106201442D01*
X179553051Y-106223488D01*
X179534723Y-106244658D01*
X179515411Y-106264918D01*
X179495151Y-106284229D01*
X179473981Y-106302557D01*
X179451935Y-106319865D01*
X179429050Y-106336117D01*
X179405362Y-106351276D01*
X179380907Y-106365307D01*
X179355722Y-106378174D01*
X179329842Y-106389839D01*
X179303304Y-106400268D01*
X179276144Y-106409423D01*
X179248399Y-106417269D01*
X179220103Y-106423770D01*
X179191294Y-106428889D01*
X179162008Y-106432590D01*
X179132280Y-106434838D01*
X179102148Y-106435595D01*
X155962477Y-106435595D01*
X155932344Y-106434838D01*
X155902616Y-106432590D01*
X155873330Y-106428889D01*
X155844520Y-106423770D01*
X155816225Y-106417269D01*
X155788479Y-106409423D01*
X155761319Y-106400267D01*
X155734781Y-106389839D01*
X155708901Y-106378173D01*
X155683716Y-106365306D01*
X155659261Y-106351275D01*
X155635573Y-106336116D01*
X155612688Y-106319864D01*
X155590642Y-106302556D01*
X155569472Y-106284228D01*
X155549212Y-106264916D01*
X155529901Y-106244657D01*
X155511573Y-106223486D01*
X155494265Y-106201440D01*
X155478013Y-106178555D01*
X155462854Y-106154867D01*
X155448822Y-106130412D01*
X155435956Y-106105226D01*
X155424290Y-106079346D01*
X155413862Y-106052808D01*
X155404706Y-106025648D01*
X155396860Y-105997902D01*
X155390359Y-105969606D01*
X155385240Y-105940797D01*
X155381539Y-105911510D01*
X155379291Y-105881782D01*
X155378534Y-105851649D01*
X155378534Y-102753649D01*
X155347607Y-102726813D01*
X155318134Y-102698427D01*
X155290189Y-102668550D01*
X155263847Y-102637239D01*
X155239184Y-102604552D01*
X155216273Y-102570547D01*
X155195190Y-102535282D01*
X155176009Y-102498815D01*
X155158804Y-102461204D01*
X155143651Y-102422506D01*
X155130625Y-102382779D01*
X155119799Y-102342081D01*
X155111249Y-102300470D01*
X155105050Y-102258003D01*
X155101275Y-102214740D01*
X155100000Y-102170737D01*
X155100000Y-73624678D01*
X155100984Y-73585533D01*
X155103904Y-73546915D01*
X155108712Y-73508869D01*
X155115363Y-73471444D01*
X155123808Y-73434685D01*
X155134002Y-73398641D01*
X155145896Y-73363357D01*
X155159445Y-73328882D01*
X155174601Y-73295261D01*
X155191316Y-73262543D01*
X155209545Y-73230773D01*
X155229239Y-73200000D01*
X155250353Y-73170269D01*
X155272838Y-73141629D01*
X155296649Y-73114125D01*
X155321737Y-73087806D01*
X155348057Y-73062717D01*
X155375560Y-73038907D01*
X155404201Y-73016421D01*
X155433931Y-72995308D01*
X155464705Y-72975613D01*
X155496474Y-72957384D01*
X155529193Y-72940669D01*
X155562813Y-72925513D01*
X155597289Y-72911965D01*
X155632572Y-72900070D01*
X155668617Y-72889876D01*
X155705376Y-72881431D01*
X155742801Y-72874780D01*
X155780847Y-72869971D01*
X155819465Y-72867052D01*
X155858610Y-72866068D01*
X179206018Y-72866068D01*
X179245161Y-72867052D01*
M02*
