%TF.GenerationSoftware,KiCad,Pcbnew,8.0.4*%
%TF.CreationDate,2024-10-20T23:48:37-07:00*%
%TF.ProjectId,MacSAO,4d616353-414f-42e6-9b69-6361645f7063,rev?*%
%TF.SameCoordinates,Original*%
%TF.FileFunction,Soldermask,Top*%
%TF.FilePolarity,Negative*%
%FSLAX46Y46*%
G04 Gerber Fmt 4.6, Leading zero omitted, Abs format (unit mm)*
G04 Created by KiCad (PCBNEW 8.0.4) date 2024-10-20 23:48:37*
%MOMM*%
%LPD*%
G01*
G04 APERTURE LIST*
%ADD10C,0.000000*%
%ADD11C,0.750000*%
%ADD12C,0.125000*%
%ADD13C,0.700000*%
G04 APERTURE END LIST*
D10*
G36*
X158021686Y-97603135D02*
G01*
X158022422Y-97610858D01*
X158022968Y-97618588D01*
X158023328Y-97626322D01*
X158023504Y-97634058D01*
X158023498Y-97641791D01*
X158023313Y-97649521D01*
X158022952Y-97657242D01*
X158022418Y-97664954D01*
X158021713Y-97672653D01*
X158020839Y-97680336D01*
X158019800Y-97688000D01*
X158017235Y-97703260D01*
X158014040Y-97718411D01*
X158013899Y-97719054D01*
X158013771Y-97719709D01*
X158013535Y-97721032D01*
X158013417Y-97721689D01*
X158013292Y-97722335D01*
X158013157Y-97722965D01*
X158013006Y-97723572D01*
X158012984Y-97723625D01*
X158012957Y-97723682D01*
X158012892Y-97723811D01*
X158012737Y-97724099D01*
X158012659Y-97724247D01*
X158012586Y-97724388D01*
X158012525Y-97724518D01*
X158012500Y-97724576D01*
X158012480Y-97724629D01*
X158012480Y-97725686D01*
X158011521Y-97729359D01*
X158010517Y-97733003D01*
X158009471Y-97736626D01*
X158008385Y-97740233D01*
X158006104Y-97747424D01*
X158003695Y-97754628D01*
X158003639Y-97754823D01*
X158003579Y-97755012D01*
X158003517Y-97755196D01*
X158003452Y-97755375D01*
X158003318Y-97755718D01*
X158003179Y-97756047D01*
X158002906Y-97756671D01*
X158002778Y-97756972D01*
X158002661Y-97757271D01*
X158000135Y-97764322D01*
X157997488Y-97771340D01*
X157994715Y-97778299D01*
X157993280Y-97781750D01*
X157991812Y-97785176D01*
X157991559Y-97785811D01*
X157991292Y-97786496D01*
X157990778Y-97787820D01*
X157990534Y-97788353D01*
X157990278Y-97788882D01*
X157990014Y-97789405D01*
X157989746Y-97789923D01*
X157989215Y-97790945D01*
X157988959Y-97791448D01*
X157988714Y-97791947D01*
X157988662Y-97792046D01*
X157988605Y-97792145D01*
X157988544Y-97792244D01*
X157988479Y-97792343D01*
X157988341Y-97792541D01*
X157988198Y-97792739D01*
X157988055Y-97792938D01*
X157987918Y-97793136D01*
X157987853Y-97793236D01*
X157987792Y-97793335D01*
X157987736Y-97793435D01*
X157987684Y-97793534D01*
X157984737Y-97799822D01*
X157981724Y-97806082D01*
X157978639Y-97812298D01*
X157975474Y-97818452D01*
X157972220Y-97824527D01*
X157968870Y-97830507D01*
X157965415Y-97836373D01*
X157961848Y-97842110D01*
X157961677Y-97842341D01*
X157961498Y-97842569D01*
X157961311Y-97842793D01*
X157961117Y-97843015D01*
X157960715Y-97843454D01*
X157960303Y-97843892D01*
X157959889Y-97844334D01*
X157959485Y-97844785D01*
X157959290Y-97845015D01*
X157959101Y-97845250D01*
X157958919Y-97845489D01*
X157958746Y-97845734D01*
X157954142Y-97852493D01*
X157951813Y-97855816D01*
X157949458Y-97859108D01*
X157947068Y-97862375D01*
X157944637Y-97865623D01*
X157942158Y-97868859D01*
X157939623Y-97872086D01*
X157938059Y-97873673D01*
X157932008Y-97880976D01*
X157925771Y-97888118D01*
X157919355Y-97895095D01*
X157912766Y-97901904D01*
X157906013Y-97908544D01*
X157899101Y-97915011D01*
X157892039Y-97921302D01*
X157884833Y-97927415D01*
X157884312Y-97927884D01*
X157883795Y-97928357D01*
X157882769Y-97929297D01*
X157882256Y-97929756D01*
X157881741Y-97930203D01*
X157881222Y-97930633D01*
X157880697Y-97931042D01*
X157878393Y-97932888D01*
X157876077Y-97934705D01*
X157873747Y-97936503D01*
X157871397Y-97938290D01*
X157868803Y-97940407D01*
X157868273Y-97940407D01*
X157861941Y-97945089D01*
X157855506Y-97949641D01*
X157848972Y-97954056D01*
X157842343Y-97958324D01*
X157835622Y-97962435D01*
X157828813Y-97966381D01*
X157821919Y-97970151D01*
X157814944Y-97973737D01*
X157807891Y-97977130D01*
X157800765Y-97980319D01*
X157793568Y-97983296D01*
X157786304Y-97986051D01*
X157778977Y-97988575D01*
X157771590Y-97990859D01*
X157764147Y-97992893D01*
X157756651Y-97994668D01*
X157750448Y-97996255D01*
X157747451Y-97996605D01*
X157744351Y-97997071D01*
X157737899Y-97998231D01*
X157731209Y-97999502D01*
X157724398Y-98000650D01*
X157720983Y-98001105D01*
X157717581Y-98001443D01*
X157714206Y-98001632D01*
X157710874Y-98001646D01*
X157707598Y-98001454D01*
X157704394Y-98001027D01*
X157701275Y-98000336D01*
X157699752Y-97999883D01*
X157698256Y-97999352D01*
X157698059Y-97999344D01*
X157697862Y-97999343D01*
X157697665Y-97999346D01*
X157697469Y-97999351D01*
X157697080Y-97999359D01*
X157696888Y-97999359D01*
X157696699Y-97999352D01*
X157692045Y-97995724D01*
X157691780Y-97991313D01*
X157691570Y-97986910D01*
X157691417Y-97982514D01*
X157691320Y-97978124D01*
X157691282Y-97973737D01*
X157691301Y-97969352D01*
X157691380Y-97964968D01*
X157691519Y-97960583D01*
X157691716Y-97956187D01*
X157691968Y-97951779D01*
X157692273Y-97947365D01*
X157692633Y-97942952D01*
X157693048Y-97938547D01*
X157693517Y-97934156D01*
X157694041Y-97929787D01*
X157694620Y-97925446D01*
X157694620Y-97924916D01*
X157695260Y-97920648D01*
X157695971Y-97916364D01*
X157696747Y-97912072D01*
X157697580Y-97907782D01*
X157699389Y-97899241D01*
X157701338Y-97890809D01*
X157701338Y-97889752D01*
X157703738Y-97880405D01*
X157706388Y-97871136D01*
X157709282Y-97861950D01*
X157712417Y-97852849D01*
X157715788Y-97843836D01*
X157719388Y-97834913D01*
X157723214Y-97826083D01*
X157727260Y-97817349D01*
X157731521Y-97808713D01*
X157735993Y-97800179D01*
X157740670Y-97791750D01*
X157745548Y-97783427D01*
X157750622Y-97775213D01*
X157755886Y-97767113D01*
X157761336Y-97759127D01*
X157766966Y-97751260D01*
X157767464Y-97750604D01*
X157767977Y-97749965D01*
X157769028Y-97748709D01*
X157769558Y-97748078D01*
X157770083Y-97747437D01*
X157770601Y-97746780D01*
X157770855Y-97746442D01*
X157771105Y-97746098D01*
X157771568Y-97745463D01*
X157772018Y-97744812D01*
X157772897Y-97743489D01*
X157773337Y-97742830D01*
X157773785Y-97742182D01*
X157774244Y-97741550D01*
X157774480Y-97741242D01*
X157774721Y-97740941D01*
X157775449Y-97739976D01*
X157776156Y-97738993D01*
X157777539Y-97737005D01*
X157778230Y-97736018D01*
X157778932Y-97735047D01*
X157779654Y-97734102D01*
X157780024Y-97733641D01*
X157780401Y-97733189D01*
X157785794Y-97726680D01*
X157788509Y-97723470D01*
X157791248Y-97720289D01*
X157794020Y-97717139D01*
X157796833Y-97714018D01*
X157799696Y-97710928D01*
X157802618Y-97707867D01*
X157803152Y-97707337D01*
X157806160Y-97704295D01*
X157809241Y-97701248D01*
X157812382Y-97698209D01*
X157815569Y-97695191D01*
X157818786Y-97692206D01*
X157822018Y-97689267D01*
X157825253Y-97686387D01*
X157828474Y-97683579D01*
X157828542Y-97683527D01*
X157828608Y-97683469D01*
X157828673Y-97683407D01*
X157828737Y-97683341D01*
X157828800Y-97683271D01*
X157828863Y-97683200D01*
X157828986Y-97683052D01*
X157829111Y-97682905D01*
X157829173Y-97682833D01*
X157829237Y-97682763D01*
X157829302Y-97682697D01*
X157829368Y-97682634D01*
X157829435Y-97682575D01*
X157829504Y-97682522D01*
X157831265Y-97681041D01*
X157833050Y-97679590D01*
X157834854Y-97678163D01*
X157836672Y-97676753D01*
X157843973Y-97671143D01*
X157850635Y-97665885D01*
X157852306Y-97664589D01*
X157853988Y-97663307D01*
X157855688Y-97662044D01*
X157857409Y-97660802D01*
X157857600Y-97660691D01*
X157857846Y-97660562D01*
X157858429Y-97660273D01*
X157859018Y-97659984D01*
X157859271Y-97659855D01*
X157859472Y-97659745D01*
X157859605Y-97659612D01*
X157859737Y-97659480D01*
X157859869Y-97659348D01*
X157859934Y-97659282D01*
X157859999Y-97659215D01*
X157863343Y-97656896D01*
X157866709Y-97654607D01*
X157870098Y-97652350D01*
X157873509Y-97650129D01*
X157876944Y-97647945D01*
X157880401Y-97645801D01*
X157883883Y-97643700D01*
X157887388Y-97641644D01*
X157894517Y-97637549D01*
X157901686Y-97633577D01*
X157905300Y-97631648D01*
X157908941Y-97629763D01*
X157912614Y-97627926D01*
X157916327Y-97626141D01*
X157916857Y-97626141D01*
X157917122Y-97625878D01*
X157917253Y-97625745D01*
X157917383Y-97625611D01*
X157921227Y-97623866D01*
X157925115Y-97622196D01*
X157929038Y-97620590D01*
X157932988Y-97619040D01*
X157940941Y-97616068D01*
X157948908Y-97613202D01*
X157951502Y-97612145D01*
X157959903Y-97609334D01*
X157968384Y-97606719D01*
X157976942Y-97604309D01*
X157985573Y-97602112D01*
X157994272Y-97600135D01*
X158003037Y-97598386D01*
X158011865Y-97596875D01*
X158020750Y-97595608D01*
X158020750Y-97595585D01*
X158020751Y-97595562D01*
X158020753Y-97595515D01*
X158020755Y-97595468D01*
X158020758Y-97595421D01*
X158021686Y-97603135D01*
G37*
G36*
X177158652Y-95598974D02*
G01*
X177167180Y-95600250D01*
X177175574Y-95602353D01*
X177183825Y-95605262D01*
X177191923Y-95608957D01*
X177199857Y-95613417D01*
X177207618Y-95618622D01*
X177215196Y-95624553D01*
X177229763Y-95638509D01*
X177243479Y-95655123D01*
X177256264Y-95674233D01*
X177268040Y-95695678D01*
X177278727Y-95719295D01*
X177288246Y-95744924D01*
X177296517Y-95772401D01*
X177303463Y-95801565D01*
X177309003Y-95832255D01*
X177313058Y-95864309D01*
X177315549Y-95897565D01*
X177316397Y-95931861D01*
X177316397Y-96867202D01*
X177316183Y-96884468D01*
X177315549Y-96901492D01*
X177314504Y-96918253D01*
X177313058Y-96934731D01*
X177311221Y-96950907D01*
X177309003Y-96966759D01*
X177306413Y-96982269D01*
X177303463Y-96997416D01*
X177300161Y-97012180D01*
X177296517Y-97026541D01*
X177292542Y-97040480D01*
X177288246Y-97053975D01*
X177283637Y-97067007D01*
X177278727Y-97079556D01*
X177273524Y-97091602D01*
X177268040Y-97103125D01*
X177262283Y-97114105D01*
X177256264Y-97124521D01*
X177249993Y-97134355D01*
X177243479Y-97143585D01*
X177236732Y-97152191D01*
X177229763Y-97160155D01*
X177222581Y-97167455D01*
X177215196Y-97174072D01*
X177207618Y-97179985D01*
X177199857Y-97185175D01*
X177191923Y-97189621D01*
X177183825Y-97193304D01*
X177175574Y-97196203D01*
X177167180Y-97198299D01*
X177158652Y-97199571D01*
X177150000Y-97200000D01*
X174697458Y-97200000D01*
X174688788Y-97199570D01*
X174680208Y-97198293D01*
X174671730Y-97196190D01*
X174663365Y-97193282D01*
X174655127Y-97189587D01*
X174647027Y-97185127D01*
X174639078Y-97179921D01*
X174631291Y-97173990D01*
X174616255Y-97160034D01*
X174602015Y-97143419D01*
X174588670Y-97124309D01*
X174576315Y-97102864D01*
X174565050Y-97079247D01*
X174554971Y-97053619D01*
X174546176Y-97026141D01*
X174538761Y-96996977D01*
X174532825Y-96966287D01*
X174528464Y-96934234D01*
X174525776Y-96900978D01*
X174524859Y-96866683D01*
X174524859Y-96815524D01*
X168099413Y-96815524D01*
X168089656Y-96815161D01*
X168080051Y-96814083D01*
X168070609Y-96812307D01*
X168061339Y-96809850D01*
X168052252Y-96806730D01*
X168043359Y-96802962D01*
X168034669Y-96798565D01*
X168026194Y-96793556D01*
X168017943Y-96787951D01*
X168009926Y-96781767D01*
X168002155Y-96775022D01*
X167994639Y-96767733D01*
X167980415Y-96751589D01*
X167967337Y-96733473D01*
X167955488Y-96713520D01*
X167944950Y-96691866D01*
X167935806Y-96668649D01*
X167928139Y-96644005D01*
X167922032Y-96618070D01*
X167917568Y-96590981D01*
X167914828Y-96562874D01*
X167913897Y-96533885D01*
X167913897Y-96424849D01*
X167914131Y-96410253D01*
X167914828Y-96395861D01*
X167915977Y-96381688D01*
X167917568Y-96367753D01*
X167919590Y-96354073D01*
X167922032Y-96340664D01*
X167924886Y-96327544D01*
X167928139Y-96314729D01*
X167931783Y-96302237D01*
X167935806Y-96290085D01*
X167940199Y-96278289D01*
X167944950Y-96266868D01*
X167950050Y-96255837D01*
X167955488Y-96245215D01*
X167961254Y-96235017D01*
X167967337Y-96225262D01*
X167973728Y-96215965D01*
X167980415Y-96207145D01*
X167987389Y-96198818D01*
X167994639Y-96191001D01*
X168002155Y-96183712D01*
X168009926Y-96176967D01*
X168017943Y-96170783D01*
X168026194Y-96165178D01*
X168034669Y-96160169D01*
X168043359Y-96155772D01*
X168052252Y-96152005D01*
X168061339Y-96148884D01*
X168070609Y-96146427D01*
X168080051Y-96144652D01*
X168089656Y-96143573D01*
X168099413Y-96143210D01*
X174524859Y-96143210D01*
X174524859Y-95938056D01*
X174525068Y-95921637D01*
X174525690Y-95905442D01*
X174526714Y-95889488D01*
X174528130Y-95873792D01*
X174529926Y-95858371D01*
X174532093Y-95843241D01*
X174534620Y-95828419D01*
X174537496Y-95813923D01*
X174540710Y-95799769D01*
X174544254Y-95785974D01*
X174548115Y-95772554D01*
X174552283Y-95759527D01*
X174556749Y-95746909D01*
X174561500Y-95734717D01*
X174566528Y-95722969D01*
X174571821Y-95711680D01*
X174577369Y-95700868D01*
X174583161Y-95690549D01*
X174589187Y-95680741D01*
X174595436Y-95671459D01*
X174601898Y-95662722D01*
X174608562Y-95654546D01*
X174615419Y-95646947D01*
X174622456Y-95639943D01*
X174629664Y-95633550D01*
X174637033Y-95627785D01*
X174644552Y-95622665D01*
X174652209Y-95618207D01*
X174659996Y-95614428D01*
X174667901Y-95611344D01*
X174675913Y-95608972D01*
X174684023Y-95607329D01*
X174686347Y-95606319D01*
X174688681Y-95605364D01*
X174691025Y-95604465D01*
X174693378Y-95603623D01*
X174695740Y-95602841D01*
X174698112Y-95602119D01*
X174700492Y-95601459D01*
X174702881Y-95600862D01*
X174705278Y-95600331D01*
X174707683Y-95599865D01*
X174710095Y-95599468D01*
X174712516Y-95599139D01*
X174714943Y-95598881D01*
X174717377Y-95598695D01*
X174719818Y-95598582D01*
X174722265Y-95598544D01*
X177150000Y-95598544D01*
X177158652Y-95598974D01*
G37*
D11*
X175511484Y-75985570D02*
X175565009Y-75989454D01*
X175617712Y-75995853D01*
X175669532Y-76004703D01*
X175720404Y-76015943D01*
X175770266Y-76029511D01*
X175819053Y-76045346D01*
X175866702Y-76063385D01*
X175913151Y-76083566D01*
X175958336Y-76105827D01*
X176002193Y-76130108D01*
X176044659Y-76156344D01*
X176085671Y-76184476D01*
X176125166Y-76214440D01*
X176163080Y-76246176D01*
X176199349Y-76279620D01*
X176233911Y-76314711D01*
X176266703Y-76351388D01*
X176297660Y-76389587D01*
X176326720Y-76429248D01*
X176353818Y-76470309D01*
X176378893Y-76512707D01*
X176401880Y-76556380D01*
X176422717Y-76601267D01*
X176441339Y-76647306D01*
X176457684Y-76694435D01*
X176471687Y-76742592D01*
X176483287Y-76791714D01*
X176492420Y-76841741D01*
X176499021Y-76892610D01*
X176503028Y-76944259D01*
X176504378Y-76996627D01*
X176504378Y-88084006D01*
X176503028Y-88136390D01*
X176499021Y-88188089D01*
X176492420Y-88239039D01*
X176483287Y-88289176D01*
X176471687Y-88338436D01*
X176457684Y-88386755D01*
X176441339Y-88434068D01*
X176422717Y-88480311D01*
X176401880Y-88525420D01*
X176378893Y-88569332D01*
X176353818Y-88611982D01*
X176326720Y-88653305D01*
X176297660Y-88693238D01*
X176266703Y-88731716D01*
X176233911Y-88768675D01*
X176199349Y-88804052D01*
X176163080Y-88837782D01*
X176125166Y-88869800D01*
X176085671Y-88900043D01*
X176044659Y-88928447D01*
X176002193Y-88954947D01*
X175958336Y-88979479D01*
X175913151Y-89001979D01*
X175866702Y-89022384D01*
X175819053Y-89040628D01*
X175770266Y-89056647D01*
X175720404Y-89070378D01*
X175669532Y-89081757D01*
X175617712Y-89090718D01*
X175565009Y-89097199D01*
X175511484Y-89101134D01*
X175457202Y-89102460D01*
X159566546Y-89102460D01*
X159512247Y-89101134D01*
X159458672Y-89097199D01*
X159405886Y-89090718D01*
X159353956Y-89081757D01*
X159302946Y-89070378D01*
X159252923Y-89056647D01*
X159203952Y-89040628D01*
X159156098Y-89022384D01*
X159109427Y-89001979D01*
X159064005Y-88979479D01*
X159019896Y-88954947D01*
X158977168Y-88928447D01*
X158935885Y-88900043D01*
X158896112Y-88869800D01*
X158857916Y-88837782D01*
X158821362Y-88804052D01*
X158786515Y-88768675D01*
X158753441Y-88731716D01*
X158722206Y-88693238D01*
X158692876Y-88653305D01*
X158665514Y-88611982D01*
X158640188Y-88569332D01*
X158616963Y-88525420D01*
X158595905Y-88480311D01*
X158577078Y-88434068D01*
X158560549Y-88386755D01*
X158546383Y-88338436D01*
X158534645Y-88289176D01*
X158525402Y-88239039D01*
X158518719Y-88188089D01*
X158514660Y-88136390D01*
X158513293Y-88084006D01*
X158513293Y-76996627D01*
X158514491Y-76947496D01*
X158518049Y-76898965D01*
X158523913Y-76851089D01*
X158532030Y-76803920D01*
X158542347Y-76757509D01*
X158554810Y-76711911D01*
X158569366Y-76667178D01*
X158585961Y-76623363D01*
X158604541Y-76580518D01*
X158625054Y-76538696D01*
X158647445Y-76497950D01*
X158671662Y-76458333D01*
X158697651Y-76419898D01*
X158725358Y-76382696D01*
X158754730Y-76346782D01*
X158785714Y-76312207D01*
X158818255Y-76279025D01*
X158852301Y-76247288D01*
X158887798Y-76217049D01*
X158924693Y-76188360D01*
X158962932Y-76161275D01*
X159002461Y-76135847D01*
X159043228Y-76112127D01*
X159085178Y-76090170D01*
X159128259Y-76070026D01*
X159172416Y-76051750D01*
X159217597Y-76035394D01*
X159263748Y-76021011D01*
X159310815Y-76008654D01*
X159358745Y-75998374D01*
X159407485Y-75990226D01*
X159456981Y-75984262D01*
X175457202Y-75984262D01*
X175511484Y-75985570D01*
D10*
G36*
X158036754Y-97970267D02*
G01*
X158036740Y-97970273D01*
X158036711Y-97970286D01*
X158036684Y-97970299D01*
X158036658Y-97970311D01*
X158044820Y-97970431D01*
X158052988Y-97970728D01*
X158061156Y-97971197D01*
X158069318Y-97971836D01*
X158077466Y-97972639D01*
X158085595Y-97973604D01*
X158093697Y-97974725D01*
X158101767Y-97975999D01*
X158106421Y-97977055D01*
X158114172Y-97978116D01*
X158114301Y-97978163D01*
X158114430Y-97978208D01*
X158114687Y-97978289D01*
X158114943Y-97978361D01*
X158115200Y-97978425D01*
X158115457Y-97978483D01*
X158115714Y-97978537D01*
X158116228Y-97978642D01*
X158116556Y-97978733D01*
X158116881Y-97978811D01*
X158117204Y-97978878D01*
X158117527Y-97978939D01*
X158118173Y-97979051D01*
X158118499Y-97979109D01*
X158118826Y-97979172D01*
X158122973Y-97980077D01*
X158127116Y-97980954D01*
X158131249Y-97981847D01*
X158135363Y-97982796D01*
X158138365Y-97983576D01*
X158141355Y-97984402D01*
X158144334Y-97985269D01*
X158147303Y-97986171D01*
X158153224Y-97988060D01*
X158159132Y-97990021D01*
X158159300Y-97990074D01*
X158159466Y-97990131D01*
X158159631Y-97990194D01*
X158159795Y-97990260D01*
X158160118Y-97990401D01*
X158160440Y-97990548D01*
X158160760Y-97990696D01*
X158161081Y-97990837D01*
X158161242Y-97990904D01*
X158161403Y-97990967D01*
X158161566Y-97991025D01*
X158161730Y-97991078D01*
X158163126Y-97991551D01*
X158164546Y-97992050D01*
X158167425Y-97993102D01*
X158173098Y-97995206D01*
X158173624Y-97995206D01*
X158173689Y-97995253D01*
X158173754Y-97995297D01*
X158173819Y-97995339D01*
X158173884Y-97995379D01*
X158173949Y-97995417D01*
X158174013Y-97995452D01*
X158174078Y-97995486D01*
X158174143Y-97995517D01*
X158174272Y-97995577D01*
X158174400Y-97995632D01*
X158174529Y-97995683D01*
X158174658Y-97995732D01*
X158182409Y-97998376D01*
X158182936Y-97998376D01*
X158187586Y-98000493D01*
X158192706Y-98002597D01*
X158197770Y-98004749D01*
X158202785Y-98006956D01*
X158207759Y-98009227D01*
X158212698Y-98011568D01*
X158217610Y-98013987D01*
X158222500Y-98016493D01*
X158227377Y-98019093D01*
X158228946Y-98019961D01*
X158230508Y-98020852D01*
X158233612Y-98022679D01*
X158236699Y-98024526D01*
X158239779Y-98026345D01*
X158244758Y-98029347D01*
X158249693Y-98032409D01*
X158254579Y-98035542D01*
X158259413Y-98038754D01*
X158259947Y-98038754D01*
X158262007Y-98040341D01*
X158262106Y-98040393D01*
X158262206Y-98040451D01*
X158262305Y-98040513D01*
X158262404Y-98040580D01*
X158262601Y-98040721D01*
X158262797Y-98040868D01*
X158262992Y-98041015D01*
X158263186Y-98041157D01*
X158263282Y-98041224D01*
X158263377Y-98041286D01*
X158263473Y-98041345D01*
X158263567Y-98041398D01*
X158263699Y-98041531D01*
X158263831Y-98041663D01*
X158264097Y-98041928D01*
X158264628Y-98042454D01*
X158266995Y-98044125D01*
X158269354Y-98045821D01*
X158274037Y-98049279D01*
X158278665Y-98052811D01*
X158283228Y-98056401D01*
X158289432Y-98061388D01*
X158292526Y-98063912D01*
X158295601Y-98066464D01*
X158298648Y-98069049D01*
X158301656Y-98071673D01*
X158304615Y-98074342D01*
X158307516Y-98077061D01*
X158309393Y-98078877D01*
X158311237Y-98080711D01*
X158313057Y-98082563D01*
X158314857Y-98084431D01*
X158318423Y-98088210D01*
X158321985Y-98092038D01*
X158323035Y-98093189D01*
X158324068Y-98094345D01*
X158325094Y-98095511D01*
X158326124Y-98096692D01*
X158327941Y-98097943D01*
X158329651Y-98099214D01*
X158331258Y-98100504D01*
X158332764Y-98101812D01*
X158334170Y-98103136D01*
X158335479Y-98104475D01*
X158336694Y-98105828D01*
X158337815Y-98107193D01*
X158338846Y-98108569D01*
X158339787Y-98109954D01*
X158340643Y-98111348D01*
X158341414Y-98112748D01*
X158342102Y-98114154D01*
X158342710Y-98115563D01*
X158343241Y-98116976D01*
X158343695Y-98118390D01*
X158346619Y-98122231D01*
X158349488Y-98126040D01*
X158350901Y-98127958D01*
X158352302Y-98129899D01*
X158353689Y-98131874D01*
X158355063Y-98133893D01*
X158353414Y-98136518D01*
X158351736Y-98139072D01*
X158350028Y-98141554D01*
X158348290Y-98143965D01*
X158346522Y-98146305D01*
X158344725Y-98148574D01*
X158342897Y-98150774D01*
X158341039Y-98152904D01*
X158339152Y-98154965D01*
X158337234Y-98156957D01*
X158335286Y-98158880D01*
X158333307Y-98160735D01*
X158331299Y-98162522D01*
X158329260Y-98164242D01*
X158327190Y-98165895D01*
X158325091Y-98167481D01*
X158323715Y-98168471D01*
X158322320Y-98169439D01*
X158320911Y-98170382D01*
X158319488Y-98171301D01*
X158318056Y-98172193D01*
X158316615Y-98173058D01*
X158315170Y-98173895D01*
X158313723Y-98174702D01*
X158313189Y-98174702D01*
X158310114Y-98176223D01*
X158308548Y-98177008D01*
X158306990Y-98177800D01*
X158306887Y-98177852D01*
X158306787Y-98177911D01*
X158306688Y-98177974D01*
X158306591Y-98178041D01*
X158306495Y-98178111D01*
X158306400Y-98178184D01*
X158306211Y-98178333D01*
X158306022Y-98178481D01*
X158305927Y-98178553D01*
X158305831Y-98178622D01*
X158305733Y-98178688D01*
X158305634Y-98178750D01*
X158305533Y-98178806D01*
X158305430Y-98178857D01*
X158291768Y-98192060D01*
X158278531Y-98205645D01*
X158272111Y-98212607D01*
X158265843Y-98219694D01*
X158259743Y-98226918D01*
X158253828Y-98234289D01*
X158248112Y-98241817D01*
X158242611Y-98249513D01*
X158237340Y-98257386D01*
X158232316Y-98265447D01*
X158227554Y-98273707D01*
X158223069Y-98282175D01*
X158218878Y-98290862D01*
X158214995Y-98299779D01*
X158205728Y-98322099D01*
X158198023Y-98344984D01*
X158191863Y-98368337D01*
X158187230Y-98392061D01*
X158184107Y-98416059D01*
X158182477Y-98440234D01*
X158182322Y-98464487D01*
X158183625Y-98488723D01*
X158186368Y-98512844D01*
X158190535Y-98536752D01*
X158196108Y-98560351D01*
X158203069Y-98583543D01*
X158211401Y-98606231D01*
X158221087Y-98628318D01*
X158232110Y-98649707D01*
X158244452Y-98670300D01*
X158248605Y-98676471D01*
X158252918Y-98682499D01*
X158257386Y-98688390D01*
X158262000Y-98694145D01*
X158266757Y-98699770D01*
X158271648Y-98705267D01*
X158276668Y-98710640D01*
X158281810Y-98715892D01*
X158287070Y-98721029D01*
X158292439Y-98726052D01*
X158297912Y-98730965D01*
X158303482Y-98735773D01*
X158309144Y-98740478D01*
X158314892Y-98745085D01*
X158326616Y-98754018D01*
X158332235Y-98756739D01*
X158337659Y-98759548D01*
X158342874Y-98762447D01*
X158345399Y-98763930D01*
X158347868Y-98765435D01*
X158350278Y-98766963D01*
X158352628Y-98768514D01*
X158354916Y-98770088D01*
X158357141Y-98771685D01*
X158359300Y-98773305D01*
X158361394Y-98774948D01*
X158363419Y-98776615D01*
X158365374Y-98778306D01*
X158366741Y-98778955D01*
X158368073Y-98779613D01*
X158369370Y-98780281D01*
X158370631Y-98780961D01*
X158371858Y-98781651D01*
X158373048Y-98782354D01*
X158374203Y-98783069D01*
X158375322Y-98783797D01*
X158376404Y-98784540D01*
X158377450Y-98785297D01*
X158378459Y-98786070D01*
X158379431Y-98786858D01*
X158380366Y-98787663D01*
X158381263Y-98788486D01*
X158382123Y-98789326D01*
X158382944Y-98790185D01*
X158387206Y-98792655D01*
X158391456Y-98795151D01*
X158395714Y-98797617D01*
X158397852Y-98798822D01*
X158400000Y-98800000D01*
X158399685Y-98802079D01*
X158399345Y-98804153D01*
X158398595Y-98808287D01*
X158397773Y-98812412D01*
X158396898Y-98816537D01*
X158397337Y-98818323D01*
X158397679Y-98820146D01*
X158397921Y-98822006D01*
X158398061Y-98823904D01*
X158398095Y-98825843D01*
X158398021Y-98827822D01*
X158397837Y-98829843D01*
X158397538Y-98831907D01*
X158397122Y-98834016D01*
X158396587Y-98836171D01*
X158395929Y-98838373D01*
X158395145Y-98840622D01*
X158394233Y-98842921D01*
X158393189Y-98845270D01*
X158392011Y-98847671D01*
X158390696Y-98850125D01*
X158390033Y-98852806D01*
X158389268Y-98855516D01*
X158388402Y-98858253D01*
X158387435Y-98861017D01*
X158386366Y-98863807D01*
X158385196Y-98866624D01*
X158383925Y-98869466D01*
X158382554Y-98872334D01*
X158381081Y-98875226D01*
X158379508Y-98878142D01*
X158377834Y-98881082D01*
X158376060Y-98884045D01*
X158374185Y-98887030D01*
X158372210Y-98890038D01*
X158370135Y-98893068D01*
X158367960Y-98896119D01*
X158367689Y-98896701D01*
X158367432Y-98897279D01*
X158366937Y-98898434D01*
X158366438Y-98899595D01*
X158366175Y-98900181D01*
X158365896Y-98900773D01*
X158361143Y-98910406D01*
X158356213Y-98920110D01*
X158351087Y-98929834D01*
X158348444Y-98934689D01*
X158345743Y-98939530D01*
X158345213Y-98940060D01*
X158342514Y-98946911D01*
X158339672Y-98953709D01*
X158336691Y-98960433D01*
X158333576Y-98967064D01*
X158330334Y-98973581D01*
X158326969Y-98979965D01*
X158323486Y-98986196D01*
X158319891Y-98992253D01*
X158317086Y-98997661D01*
X158315641Y-99000310D01*
X158314164Y-99002918D01*
X158312655Y-99005484D01*
X158311112Y-99008002D01*
X158309535Y-99010472D01*
X158307921Y-99012889D01*
X158306269Y-99015250D01*
X158304578Y-99017553D01*
X158302847Y-99019795D01*
X158301074Y-99021972D01*
X158299258Y-99024082D01*
X158297397Y-99026121D01*
X158295490Y-99028087D01*
X158293535Y-99029977D01*
X158288054Y-99038532D01*
X158282466Y-99047029D01*
X158276777Y-99055464D01*
X158270993Y-99063835D01*
X158265121Y-99072141D01*
X158259165Y-99080378D01*
X158253131Y-99088545D01*
X158247027Y-99096638D01*
X158236671Y-99110818D01*
X158226039Y-99124733D01*
X158215087Y-99138317D01*
X158209478Y-99144964D01*
X158203772Y-99151504D01*
X158197965Y-99157928D01*
X158192051Y-99164228D01*
X158186024Y-99170395D01*
X158179879Y-99176422D01*
X158173610Y-99182300D01*
X158167213Y-99188020D01*
X158160681Y-99193575D01*
X158154009Y-99198956D01*
X158153096Y-99199789D01*
X158152194Y-99200636D01*
X158150406Y-99202349D01*
X158149511Y-99203203D01*
X158148611Y-99204046D01*
X158147701Y-99204875D01*
X158146776Y-99205682D01*
X158142157Y-99209453D01*
X158137446Y-99213055D01*
X158132647Y-99216488D01*
X158127765Y-99219752D01*
X158122804Y-99222849D01*
X158117766Y-99225778D01*
X158112657Y-99228540D01*
X158107480Y-99231136D01*
X158102239Y-99233566D01*
X158096939Y-99235832D01*
X158091582Y-99237932D01*
X158086172Y-99239869D01*
X158080715Y-99241642D01*
X158075213Y-99243253D01*
X158069671Y-99244701D01*
X158064093Y-99245988D01*
X158059263Y-99247190D01*
X158054449Y-99248223D01*
X158049651Y-99249089D01*
X158044868Y-99249796D01*
X158040101Y-99250347D01*
X158035349Y-99250747D01*
X158030613Y-99251002D01*
X158025892Y-99251117D01*
X158021185Y-99251096D01*
X158016493Y-99250945D01*
X158011816Y-99250668D01*
X158007154Y-99250270D01*
X158002506Y-99249757D01*
X157997872Y-99249133D01*
X157993252Y-99248404D01*
X157988646Y-99247575D01*
X157979859Y-99246166D01*
X157971115Y-99244420D01*
X157962428Y-99242339D01*
X157953816Y-99239922D01*
X157945294Y-99237170D01*
X157936879Y-99234084D01*
X157932716Y-99232415D01*
X157928586Y-99230664D01*
X157924490Y-99228829D01*
X157920431Y-99226910D01*
X157881605Y-99211662D01*
X157871846Y-99207971D01*
X157862060Y-99204427D01*
X157852246Y-99201078D01*
X157842402Y-99197972D01*
X157833265Y-99195855D01*
X157824051Y-99193983D01*
X157814774Y-99192352D01*
X157805450Y-99190956D01*
X157796094Y-99189791D01*
X157786721Y-99188851D01*
X157777348Y-99188133D01*
X157767988Y-99187630D01*
X157767146Y-99187652D01*
X157766305Y-99187646D01*
X157764628Y-99187595D01*
X157763790Y-99187570D01*
X157762952Y-99187561D01*
X157762112Y-99187578D01*
X157761692Y-99187599D01*
X157761271Y-99187630D01*
X157760229Y-99187522D01*
X157759192Y-99187437D01*
X157758158Y-99187371D01*
X157757127Y-99187317D01*
X157755066Y-99187221D01*
X157754035Y-99187166D01*
X157753000Y-99187100D01*
X157741294Y-99187310D01*
X157729585Y-99187877D01*
X157717886Y-99188796D01*
X157706208Y-99190060D01*
X157694567Y-99191666D01*
X157682973Y-99193608D01*
X157671441Y-99195881D01*
X157659983Y-99198479D01*
X157649117Y-99201816D01*
X157638323Y-99205431D01*
X157627586Y-99209272D01*
X157616891Y-99213285D01*
X157574202Y-99230004D01*
X157572646Y-99230753D01*
X157571095Y-99231524D01*
X157567999Y-99233102D01*
X157562226Y-99235531D01*
X157556376Y-99237805D01*
X157550454Y-99239930D01*
X157544465Y-99241914D01*
X157538415Y-99243766D01*
X157532307Y-99245493D01*
X157526148Y-99247103D01*
X157519942Y-99248604D01*
X157518260Y-99249194D01*
X157516583Y-99249760D01*
X157515744Y-99250026D01*
X157514905Y-99250277D01*
X157514065Y-99250508D01*
X157513224Y-99250718D01*
X157512586Y-99250808D01*
X157511941Y-99250885D01*
X157511292Y-99250951D01*
X157510641Y-99251010D01*
X157509339Y-99251122D01*
X157508694Y-99251181D01*
X157508055Y-99251248D01*
X157501900Y-99252317D01*
X157495722Y-99253224D01*
X157489526Y-99253971D01*
X157483316Y-99254561D01*
X157477098Y-99254994D01*
X157470876Y-99255273D01*
X157464657Y-99255400D01*
X157458445Y-99255376D01*
X157456775Y-99255362D01*
X157455094Y-99255323D01*
X157451717Y-99255192D01*
X157445009Y-99254845D01*
X157444815Y-99254841D01*
X157444622Y-99254827D01*
X157444429Y-99254805D01*
X157444236Y-99254777D01*
X157444044Y-99254743D01*
X157443852Y-99254705D01*
X157443467Y-99254619D01*
X157443082Y-99254528D01*
X157442694Y-99254441D01*
X157442499Y-99254402D01*
X157442303Y-99254367D01*
X157442106Y-99254338D01*
X157441908Y-99254315D01*
X157437092Y-99253969D01*
X157432299Y-99253544D01*
X157427532Y-99253010D01*
X157422793Y-99252335D01*
X157418086Y-99251487D01*
X157415746Y-99250988D01*
X157413414Y-99250435D01*
X157411092Y-99249823D01*
X157408779Y-99249148D01*
X157406477Y-99248406D01*
X157404185Y-99247594D01*
X157401741Y-99246523D01*
X157399315Y-99245416D01*
X157396904Y-99244277D01*
X157394509Y-99243113D01*
X157389761Y-99240729D01*
X157385065Y-99238309D01*
X157384531Y-99238309D01*
X157383196Y-99237589D01*
X157381890Y-99236845D01*
X157380604Y-99236080D01*
X157379330Y-99235300D01*
X157376787Y-99233712D01*
X157374197Y-99232117D01*
X157373289Y-99231611D01*
X157372380Y-99231116D01*
X157370565Y-99230134D01*
X157369659Y-99229631D01*
X157368757Y-99229111D01*
X157367857Y-99228567D01*
X157366961Y-99227990D01*
X157366438Y-99227460D01*
X157362134Y-99224832D01*
X157357816Y-99222166D01*
X157355671Y-99220810D01*
X157353545Y-99219436D01*
X157351447Y-99218038D01*
X157349383Y-99216614D01*
X157349322Y-99216568D01*
X157349260Y-99216525D01*
X157349197Y-99216487D01*
X157349132Y-99216452D01*
X157349066Y-99216419D01*
X157349000Y-99216389D01*
X157348866Y-99216334D01*
X157348732Y-99216280D01*
X157348599Y-99216223D01*
X157348535Y-99216193D01*
X157348471Y-99216160D01*
X157348409Y-99216124D01*
X157348349Y-99216084D01*
X157347806Y-99215691D01*
X157347273Y-99215288D01*
X157346227Y-99214459D01*
X157345202Y-99213606D01*
X157344190Y-99212741D01*
X157342166Y-99211014D01*
X157341136Y-99210173D01*
X157340613Y-99209764D01*
X157340082Y-99209363D01*
X157338005Y-99207811D01*
X157335926Y-99206275D01*
X157333857Y-99204735D01*
X157332831Y-99203956D01*
X157331812Y-99203168D01*
X157328753Y-99200693D01*
X157325722Y-99198188D01*
X157322717Y-99195653D01*
X157319737Y-99193086D01*
X157316781Y-99190489D01*
X157313847Y-99187860D01*
X157310935Y-99185199D01*
X157308043Y-99182507D01*
X157307056Y-99181568D01*
X157306079Y-99180619D01*
X157304146Y-99178690D01*
X157300291Y-99174756D01*
X157293276Y-99167729D01*
X157289801Y-99164165D01*
X157286353Y-99160567D01*
X157282936Y-99156934D01*
X157279552Y-99153265D01*
X157276207Y-99149560D01*
X157272902Y-99145817D01*
X157270838Y-99143700D01*
X157264219Y-99135898D01*
X157257723Y-99127962D01*
X157251337Y-99119913D01*
X157245053Y-99111767D01*
X157238859Y-99103544D01*
X157232745Y-99095261D01*
X157220713Y-99078587D01*
X157220406Y-99078216D01*
X157220084Y-99077839D01*
X157219416Y-99077069D01*
X157219079Y-99076678D01*
X157218747Y-99076285D01*
X157218426Y-99075890D01*
X157218119Y-99075494D01*
X157212465Y-99067462D01*
X157206915Y-99059484D01*
X157195902Y-99043454D01*
X157195125Y-99043457D01*
X157194349Y-99043451D01*
X157193574Y-99043446D01*
X157193187Y-99043448D01*
X157192801Y-99043454D01*
X157184530Y-99030011D01*
X157183000Y-99027513D01*
X157181496Y-99025004D01*
X157178538Y-99019961D01*
X157172648Y-99009850D01*
X157172575Y-99009702D01*
X157172506Y-99009554D01*
X157172375Y-99009261D01*
X157172133Y-99008695D01*
X157172013Y-99008429D01*
X157171952Y-99008301D01*
X157171890Y-99008178D01*
X157171826Y-99008060D01*
X157171760Y-99007946D01*
X157171690Y-99007839D01*
X157171618Y-99007737D01*
X157170054Y-99005620D01*
X157169391Y-99004457D01*
X157168747Y-99003303D01*
X157167460Y-99000966D01*
X157166420Y-98999446D01*
X157166156Y-98999054D01*
X157165896Y-98998660D01*
X157165643Y-98998265D01*
X157165400Y-98997868D01*
X157165224Y-98997557D01*
X157165053Y-98997241D01*
X157164726Y-98996593D01*
X157164410Y-98995933D01*
X157164101Y-98995268D01*
X157163792Y-98994605D01*
X157163476Y-98993952D01*
X157163148Y-98993317D01*
X157162978Y-98993008D01*
X157162802Y-98992707D01*
X157154805Y-98979370D01*
X157147005Y-98965916D01*
X157143203Y-98959128D01*
X157139481Y-98952292D01*
X157135848Y-98945400D01*
X157132315Y-98938447D01*
X157132230Y-98938262D01*
X157132153Y-98938076D01*
X157132084Y-98937888D01*
X157132020Y-98937698D01*
X157131905Y-98937316D01*
X157131800Y-98936928D01*
X157131695Y-98936538D01*
X157131580Y-98936144D01*
X157131516Y-98935947D01*
X157131447Y-98935749D01*
X157131370Y-98935551D01*
X157131285Y-98935353D01*
X157126192Y-98926457D01*
X157121313Y-98917622D01*
X157116706Y-98908879D01*
X157112429Y-98900259D01*
X157108539Y-98891795D01*
X157106756Y-98887632D01*
X157105093Y-98883519D01*
X157103554Y-98879462D01*
X157102149Y-98875463D01*
X157100883Y-98871527D01*
X157099764Y-98867657D01*
X157088165Y-98839846D01*
X157077310Y-98811734D01*
X157067235Y-98783343D01*
X157057974Y-98754694D01*
X157049563Y-98725812D01*
X157042038Y-98696716D01*
X157035434Y-98667431D01*
X157029786Y-98637977D01*
X157025130Y-98608377D01*
X157021502Y-98578653D01*
X157018936Y-98548828D01*
X157017467Y-98518922D01*
X157017133Y-98488960D01*
X157017967Y-98458962D01*
X157020005Y-98428951D01*
X157023283Y-98398949D01*
X157025402Y-98383248D01*
X157027977Y-98367545D01*
X157031007Y-98351862D01*
X157034488Y-98336221D01*
X157038419Y-98320644D01*
X157042798Y-98305151D01*
X157047620Y-98289766D01*
X157052885Y-98274509D01*
X157058589Y-98259403D01*
X157064730Y-98244468D01*
X157071305Y-98229727D01*
X157078313Y-98215202D01*
X157085750Y-98200914D01*
X157093614Y-98186884D01*
X157101903Y-98173135D01*
X157110613Y-98159688D01*
X157111756Y-98157858D01*
X157112919Y-98156048D01*
X157115267Y-98152466D01*
X157116166Y-98151157D01*
X157117061Y-98149836D01*
X157117510Y-98149182D01*
X157117963Y-98148539D01*
X157118420Y-98147912D01*
X157118883Y-98147305D01*
X157123231Y-98140998D01*
X157127705Y-98134797D01*
X157132304Y-98128702D01*
X157137024Y-98122714D01*
X157141866Y-98116835D01*
X157146827Y-98111063D01*
X157151905Y-98105401D01*
X157157098Y-98099849D01*
X157162405Y-98094407D01*
X157167825Y-98089076D01*
X157173354Y-98083857D01*
X157178993Y-98078750D01*
X157184738Y-98073755D01*
X157190588Y-98068875D01*
X157196542Y-98064108D01*
X157202597Y-98059457D01*
X157202760Y-98059311D01*
X157202923Y-98059172D01*
X157203248Y-98058905D01*
X157203571Y-98058650D01*
X157203894Y-98058401D01*
X157204217Y-98058151D01*
X157204540Y-98057895D01*
X157204864Y-98057627D01*
X157205027Y-98057486D01*
X157205191Y-98057339D01*
X157205721Y-98057339D01*
X157205851Y-98057208D01*
X157205983Y-98057076D01*
X157206248Y-98056813D01*
X157206768Y-98056442D01*
X157207284Y-98056064D01*
X157208312Y-98055293D01*
X157210383Y-98053715D01*
X157223073Y-98044631D01*
X157229559Y-98040272D01*
X157236140Y-98036040D01*
X157242815Y-98031938D01*
X157249585Y-98027969D01*
X157256449Y-98024137D01*
X157263408Y-98020446D01*
X157270463Y-98016897D01*
X157277612Y-98013496D01*
X157284857Y-98010244D01*
X157292198Y-98007146D01*
X157299634Y-98004204D01*
X157307167Y-98001423D01*
X157314795Y-97998805D01*
X157322520Y-97996354D01*
X157330180Y-97993789D01*
X157337865Y-97991439D01*
X157345573Y-97989300D01*
X157353301Y-97987368D01*
X157361049Y-97985639D01*
X157368814Y-97984108D01*
X157376595Y-97982771D01*
X157384390Y-97981625D01*
X157392198Y-97980664D01*
X157400016Y-97979885D01*
X157407844Y-97979282D01*
X157415679Y-97978853D01*
X157431365Y-97978498D01*
X157447062Y-97978783D01*
X157447387Y-97978789D01*
X157447711Y-97978804D01*
X157448036Y-97978829D01*
X157448359Y-97978860D01*
X157449005Y-97978940D01*
X157449650Y-97979033D01*
X157450294Y-97979127D01*
X157450938Y-97979213D01*
X157451582Y-97979279D01*
X157451904Y-97979301D01*
X157452227Y-97979314D01*
X157467043Y-97979977D01*
X157481809Y-97981221D01*
X157496510Y-97983056D01*
X157503832Y-97984200D01*
X157511131Y-97985496D01*
X157518406Y-97986946D01*
X157525656Y-97988552D01*
X157532877Y-97990315D01*
X157540069Y-97992236D01*
X157547229Y-97994318D01*
X157554355Y-97996561D01*
X157561446Y-97998967D01*
X157568499Y-98001538D01*
X157568599Y-98001585D01*
X157568699Y-98001629D01*
X157568798Y-98001670D01*
X157568898Y-98001708D01*
X157569096Y-98001777D01*
X157569292Y-98001839D01*
X157569681Y-98001952D01*
X157569873Y-98002008D01*
X157570063Y-98002068D01*
X157571120Y-98002068D01*
X157573837Y-98003069D01*
X157576562Y-98004051D01*
X157577923Y-98004554D01*
X157579280Y-98005073D01*
X157580632Y-98005617D01*
X157581976Y-98006192D01*
X157586119Y-98007607D01*
X157590280Y-98009091D01*
X157592356Y-98009868D01*
X157594423Y-98010674D01*
X157596477Y-98011512D01*
X157598513Y-98012387D01*
X157611349Y-98017352D01*
X157624125Y-98022456D01*
X157630464Y-98025098D01*
X157636756Y-98027823D01*
X157642991Y-98030644D01*
X157649157Y-98033578D01*
X157652561Y-98034827D01*
X157655956Y-98035998D01*
X157662723Y-98038108D01*
X157669463Y-98039921D01*
X157676179Y-98041448D01*
X157682877Y-98042703D01*
X157689559Y-98043697D01*
X157696232Y-98044443D01*
X157702898Y-98044953D01*
X157708799Y-98044626D01*
X157710291Y-98044513D01*
X157711787Y-98044361D01*
X157713286Y-98044160D01*
X157714035Y-98044037D01*
X157714785Y-98043896D01*
X157721999Y-98043956D01*
X157729144Y-98043767D01*
X157736231Y-98043343D01*
X157743268Y-98042699D01*
X157750265Y-98041849D01*
X157757232Y-98040808D01*
X157764178Y-98039590D01*
X157771113Y-98038209D01*
X157771635Y-98038209D01*
X157776289Y-98037152D01*
X157776819Y-98037152D01*
X157787594Y-98034317D01*
X157798399Y-98031200D01*
X157809219Y-98027841D01*
X157820044Y-98024276D01*
X157830859Y-98020545D01*
X157841652Y-98016685D01*
X157863119Y-98008729D01*
X157872238Y-98005298D01*
X157881438Y-98001912D01*
X157899809Y-97995290D01*
X157904539Y-97993678D01*
X157909363Y-97992083D01*
X157914192Y-97990543D01*
X157918932Y-97989094D01*
X157921847Y-97988152D01*
X157924864Y-97987212D01*
X157927885Y-97986308D01*
X157930815Y-97985470D01*
X157936503Y-97983353D01*
X157936631Y-97983307D01*
X157936759Y-97983264D01*
X157936887Y-97983225D01*
X157937015Y-97983188D01*
X157937272Y-97983123D01*
X157937529Y-97983064D01*
X157938044Y-97982953D01*
X157938301Y-97982894D01*
X157938559Y-97982827D01*
X157938594Y-97982826D01*
X157938628Y-97982822D01*
X157938662Y-97982816D01*
X157938695Y-97982808D01*
X157938729Y-97982798D01*
X157938761Y-97982787D01*
X157938794Y-97982773D01*
X157938826Y-97982759D01*
X157938890Y-97982725D01*
X157938953Y-97982686D01*
X157939015Y-97982644D01*
X157939077Y-97982600D01*
X157939201Y-97982510D01*
X157939264Y-97982465D01*
X157939328Y-97982423D01*
X157939392Y-97982384D01*
X157939457Y-97982349D01*
X157939490Y-97982334D01*
X157939524Y-97982320D01*
X157939558Y-97982307D01*
X157939593Y-97982297D01*
X157940876Y-97981912D01*
X157942166Y-97981549D01*
X157943461Y-97981205D01*
X157944759Y-97980876D01*
X157947353Y-97980252D01*
X157949930Y-97979653D01*
X157950637Y-97979464D01*
X157951344Y-97979291D01*
X157952761Y-97978989D01*
X157954181Y-97978729D01*
X157955603Y-97978497D01*
X157958450Y-97978054D01*
X157959874Y-97977812D01*
X157961298Y-97977536D01*
X157961563Y-97977273D01*
X157961695Y-97977141D01*
X157961825Y-97977009D01*
X157962355Y-97977009D01*
X157967471Y-97976012D01*
X157972642Y-97975106D01*
X157977859Y-97974296D01*
X157983108Y-97973586D01*
X157988380Y-97972982D01*
X157993662Y-97972488D01*
X157998944Y-97972108D01*
X158004214Y-97971848D01*
X158004335Y-97971845D01*
X158004462Y-97971844D01*
X158004728Y-97971847D01*
X158004995Y-97971850D01*
X158005124Y-97971850D01*
X158005247Y-97971848D01*
X158013142Y-97971262D01*
X158020993Y-97970744D01*
X158024919Y-97970538D01*
X158028852Y-97970382D01*
X158032800Y-97970286D01*
X158036768Y-97970261D01*
X158036754Y-97970267D01*
G37*
D12*
X158520548Y-97507052D02*
X158530958Y-97507843D01*
X158541217Y-97509147D01*
X158551311Y-97510950D01*
X158561228Y-97513239D01*
X158570955Y-97516001D01*
X158580480Y-97519223D01*
X158589788Y-97522894D01*
X158598868Y-97526999D01*
X158607707Y-97531525D01*
X158616291Y-97536461D01*
X158624607Y-97541793D01*
X158632644Y-97547508D01*
X158640388Y-97553593D01*
X158647825Y-97560036D01*
X158654944Y-97566823D01*
X158661732Y-97573942D01*
X158668174Y-97581379D01*
X158674260Y-97589123D01*
X158679975Y-97597159D01*
X158685306Y-97605476D01*
X158690242Y-97614060D01*
X158694769Y-97622898D01*
X158698874Y-97631978D01*
X158702544Y-97641286D01*
X158705767Y-97650810D01*
X158708529Y-97660537D01*
X158710818Y-97670454D01*
X158712621Y-97680548D01*
X158713924Y-97690807D01*
X158714716Y-97701216D01*
X158714982Y-97711764D01*
X158714982Y-99218066D01*
X158714716Y-99228614D01*
X158713924Y-99239024D01*
X158712621Y-99249282D01*
X158710818Y-99259376D01*
X158708529Y-99269293D01*
X158705767Y-99279020D01*
X158702544Y-99288544D01*
X158698874Y-99297852D01*
X158694769Y-99306932D01*
X158690242Y-99315770D01*
X158685306Y-99324354D01*
X158679975Y-99332671D01*
X158674260Y-99340707D01*
X158668174Y-99348451D01*
X158661732Y-99355889D01*
X158654944Y-99363007D01*
X158647825Y-99369795D01*
X158640388Y-99376237D01*
X158632644Y-99382322D01*
X158624607Y-99388037D01*
X158616291Y-99393369D01*
X158607707Y-99398305D01*
X158598868Y-99402831D01*
X158589788Y-99406936D01*
X158580480Y-99410607D01*
X158570955Y-99413829D01*
X158561228Y-99416592D01*
X158551311Y-99418880D01*
X158541217Y-99420683D01*
X158530958Y-99421987D01*
X158520548Y-99422778D01*
X158510000Y-99423045D01*
X156903738Y-99423045D01*
X156893189Y-99422778D01*
X156882779Y-99421987D01*
X156872521Y-99420683D01*
X156862426Y-99418880D01*
X156852509Y-99416592D01*
X156842782Y-99413829D01*
X156833258Y-99410607D01*
X156823949Y-99406936D01*
X156814869Y-99402831D01*
X156806031Y-99398305D01*
X156797447Y-99393369D01*
X156789130Y-99388037D01*
X156781093Y-99382322D01*
X156773349Y-99376237D01*
X156765912Y-99369795D01*
X156758793Y-99363007D01*
X156752006Y-99355889D01*
X156745563Y-99348451D01*
X156739478Y-99340707D01*
X156733763Y-99332671D01*
X156728431Y-99324354D01*
X156723495Y-99315770D01*
X156718968Y-99306932D01*
X156714863Y-99297852D01*
X156711193Y-99288544D01*
X156707970Y-99279020D01*
X156705208Y-99269293D01*
X156702919Y-99259376D01*
X156701117Y-99249282D01*
X156699813Y-99239024D01*
X156699021Y-99228614D01*
X156698755Y-99218066D01*
X156698755Y-97711764D01*
X156699021Y-97701216D01*
X156699813Y-97690807D01*
X156701117Y-97680548D01*
X156702919Y-97670454D01*
X156705208Y-97660537D01*
X156707970Y-97650810D01*
X156711193Y-97641286D01*
X156714863Y-97631978D01*
X156718968Y-97622898D01*
X156723495Y-97614060D01*
X156728431Y-97605476D01*
X156733763Y-97597159D01*
X156739478Y-97589123D01*
X156745563Y-97581379D01*
X156752006Y-97573942D01*
X156758793Y-97566823D01*
X156765912Y-97560036D01*
X156773349Y-97553593D01*
X156781093Y-97547508D01*
X156789130Y-97541793D01*
X156797447Y-97536461D01*
X156806031Y-97531525D01*
X156814869Y-97526999D01*
X156823949Y-97522894D01*
X156833258Y-97519223D01*
X156842782Y-97516001D01*
X156852509Y-97513239D01*
X156862426Y-97510950D01*
X156872521Y-97509147D01*
X156882779Y-97507843D01*
X156893189Y-97507052D01*
X156903738Y-97506785D01*
X158510000Y-97506785D01*
X158520548Y-97507052D01*
D13*
X179241052Y-72867052D02*
X179279666Y-72869971D01*
X179317705Y-72874780D01*
X179355120Y-72881431D01*
X179391867Y-72889876D01*
X179427898Y-72900070D01*
X179463165Y-72911965D01*
X179497623Y-72925513D01*
X179531225Y-72940669D01*
X179563923Y-72957384D01*
X179595671Y-72975613D01*
X179626422Y-72995308D01*
X179656130Y-73016421D01*
X179684747Y-73038907D01*
X179712226Y-73062717D01*
X179738521Y-73087806D01*
X179763586Y-73114125D01*
X179787372Y-73141629D01*
X179809834Y-73170269D01*
X179830925Y-73200000D01*
X179850597Y-73230773D01*
X179868804Y-73262543D01*
X179885499Y-73295261D01*
X179900636Y-73328882D01*
X179914167Y-73363357D01*
X179926046Y-73398641D01*
X179936226Y-73434685D01*
X179944660Y-73471444D01*
X179951301Y-73508869D01*
X179956103Y-73546915D01*
X179959018Y-73585533D01*
X179960000Y-73624678D01*
X179960000Y-102170737D01*
X179958730Y-102214728D01*
X179954968Y-102257984D01*
X179948789Y-102300444D01*
X179940266Y-102342051D01*
X179929472Y-102382747D01*
X179916482Y-102422474D01*
X179901369Y-102461174D01*
X179884207Y-102498788D01*
X179865069Y-102535259D01*
X179844029Y-102570527D01*
X179821162Y-102604536D01*
X179796539Y-102637227D01*
X179770237Y-102668542D01*
X179742327Y-102698423D01*
X179712884Y-102726811D01*
X179681981Y-102753649D01*
X179681981Y-105851649D01*
X179681224Y-105881782D01*
X179678977Y-105911510D01*
X179675276Y-105940798D01*
X179670156Y-105969607D01*
X179663656Y-105997903D01*
X179655809Y-106025650D01*
X179646654Y-106052810D01*
X179636225Y-106079348D01*
X179624559Y-106105228D01*
X179611692Y-106130414D01*
X179597661Y-106154868D01*
X179582502Y-106178556D01*
X179566250Y-106201442D01*
X179548942Y-106223488D01*
X179530614Y-106244658D01*
X179511302Y-106264918D01*
X179491042Y-106284229D01*
X179469872Y-106302557D01*
X179447826Y-106319865D01*
X179424941Y-106336117D01*
X179401253Y-106351276D01*
X179376798Y-106365307D01*
X179351613Y-106378174D01*
X179325733Y-106389839D01*
X179299195Y-106400268D01*
X179272035Y-106409423D01*
X179244290Y-106417269D01*
X179215994Y-106423770D01*
X179187185Y-106428889D01*
X179157899Y-106432590D01*
X179128171Y-106434838D01*
X179098039Y-106435595D01*
X155958368Y-106435595D01*
X155928235Y-106434838D01*
X155898507Y-106432590D01*
X155869221Y-106428889D01*
X155840411Y-106423770D01*
X155812116Y-106417269D01*
X155784370Y-106409423D01*
X155757210Y-106400267D01*
X155730672Y-106389839D01*
X155704792Y-106378173D01*
X155679607Y-106365306D01*
X155655152Y-106351275D01*
X155631464Y-106336116D01*
X155608579Y-106319864D01*
X155586533Y-106302556D01*
X155565363Y-106284228D01*
X155545103Y-106264916D01*
X155525792Y-106244657D01*
X155507464Y-106223486D01*
X155490156Y-106201440D01*
X155473904Y-106178555D01*
X155458745Y-106154867D01*
X155444713Y-106130412D01*
X155431847Y-106105226D01*
X155420181Y-106079346D01*
X155409753Y-106052808D01*
X155400597Y-106025648D01*
X155392751Y-105997902D01*
X155386250Y-105969606D01*
X155381131Y-105940797D01*
X155377430Y-105911510D01*
X155375182Y-105881782D01*
X155374425Y-105851649D01*
X155374425Y-102753649D01*
X155343498Y-102726813D01*
X155314025Y-102698427D01*
X155286080Y-102668550D01*
X155259738Y-102637239D01*
X155235075Y-102604552D01*
X155212164Y-102570547D01*
X155191081Y-102535282D01*
X155171900Y-102498815D01*
X155154695Y-102461204D01*
X155139542Y-102422506D01*
X155126516Y-102382779D01*
X155115690Y-102342081D01*
X155107140Y-102300470D01*
X155100941Y-102258003D01*
X155097166Y-102214740D01*
X155095891Y-102170737D01*
X155095891Y-73624678D01*
X155096875Y-73585533D01*
X155099795Y-73546915D01*
X155104603Y-73508869D01*
X155111254Y-73471444D01*
X155119699Y-73434685D01*
X155129893Y-73398641D01*
X155141787Y-73363357D01*
X155155336Y-73328882D01*
X155170492Y-73295261D01*
X155187207Y-73262543D01*
X155205436Y-73230773D01*
X155225130Y-73200000D01*
X155246244Y-73170269D01*
X155268729Y-73141629D01*
X155292540Y-73114125D01*
X155317628Y-73087806D01*
X155343948Y-73062717D01*
X155371451Y-73038907D01*
X155400092Y-73016421D01*
X155429822Y-72995308D01*
X155460596Y-72975613D01*
X155492365Y-72957384D01*
X155525084Y-72940669D01*
X155558704Y-72925513D01*
X155593180Y-72911965D01*
X155628463Y-72900070D01*
X155664508Y-72889876D01*
X155701267Y-72881431D01*
X155738692Y-72874780D01*
X155776738Y-72869971D01*
X155815356Y-72867052D01*
X155854501Y-72866068D01*
X179201909Y-72866068D01*
X179241052Y-72867052D01*
M02*
