%TF.GenerationSoftware,KiCad,Pcbnew,8.0.4*%
%TF.CreationDate,2024-10-20T23:48:37-07:00*%
%TF.ProjectId,MacSAO,4d616353-414f-42e6-9b69-6361645f7063,rev?*%
%TF.SameCoordinates,Original*%
%TF.FileFunction,Legend,Bot*%
%TF.FilePolarity,Positive*%
%FSLAX46Y46*%
G04 Gerber Fmt 4.6, Leading zero omitted, Abs format (unit mm)*
G04 Created by KiCad (PCBNEW 8.0.4) date 2024-10-20 23:48:37*
%MOMM*%
%LPD*%
G01*
G04 APERTURE LIST*
%ADD10C,0.100000*%
%ADD11C,0.250000*%
%ADD12C,0.200000*%
%ADD13C,0.300000*%
%ADD14C,0.150000*%
%ADD15C,0.120000*%
G04 APERTURE END LIST*
D10*
X159600000Y-100387500D02*
X159600000Y-99412500D01*
X159275000Y-100387500D02*
X159600000Y-100387500D01*
X159600000Y-99412500D02*
X159275000Y-99412500D01*
D11*
X175792669Y-74097952D02*
X175554574Y-74764619D01*
X175554574Y-74764619D02*
X175316479Y-74097952D01*
X174411717Y-74764619D02*
X174983145Y-74764619D01*
X174697431Y-74764619D02*
X174697431Y-73764619D01*
X174697431Y-73764619D02*
X174792669Y-73907476D01*
X174792669Y-73907476D02*
X174887907Y-74002714D01*
X174887907Y-74002714D02*
X174983145Y-74050333D01*
X173983145Y-74669380D02*
X173935526Y-74717000D01*
X173935526Y-74717000D02*
X173983145Y-74764619D01*
X173983145Y-74764619D02*
X174030764Y-74717000D01*
X174030764Y-74717000D02*
X173983145Y-74669380D01*
X173983145Y-74669380D02*
X173983145Y-74764619D01*
X173554574Y-73859857D02*
X173506955Y-73812238D01*
X173506955Y-73812238D02*
X173411717Y-73764619D01*
X173411717Y-73764619D02*
X173173622Y-73764619D01*
X173173622Y-73764619D02*
X173078384Y-73812238D01*
X173078384Y-73812238D02*
X173030765Y-73859857D01*
X173030765Y-73859857D02*
X172983146Y-73955095D01*
X172983146Y-73955095D02*
X172983146Y-74050333D01*
X172983146Y-74050333D02*
X173030765Y-74193190D01*
X173030765Y-74193190D02*
X173602193Y-74764619D01*
X173602193Y-74764619D02*
X172983146Y-74764619D01*
D12*
X178936623Y-75864911D02*
X178281861Y-75864911D01*
X178281861Y-75864911D02*
X178162814Y-75805387D01*
X178162814Y-75805387D02*
X178103290Y-75686339D01*
X178103290Y-75686339D02*
X178103290Y-75448244D01*
X178103290Y-75448244D02*
X178162814Y-75329197D01*
X178877100Y-75864911D02*
X178936623Y-75745863D01*
X178936623Y-75745863D02*
X178936623Y-75448244D01*
X178936623Y-75448244D02*
X178877100Y-75329197D01*
X178877100Y-75329197D02*
X178758052Y-75269673D01*
X178758052Y-75269673D02*
X178639004Y-75269673D01*
X178639004Y-75269673D02*
X178519957Y-75329197D01*
X178519957Y-75329197D02*
X178460433Y-75448244D01*
X178460433Y-75448244D02*
X178460433Y-75745863D01*
X178460433Y-75745863D02*
X178400909Y-75864911D01*
X178877100Y-76936339D02*
X178936623Y-76817291D01*
X178936623Y-76817291D02*
X178936623Y-76579196D01*
X178936623Y-76579196D02*
X178877100Y-76460149D01*
X178877100Y-76460149D02*
X178758052Y-76400625D01*
X178758052Y-76400625D02*
X178281861Y-76400625D01*
X178281861Y-76400625D02*
X178162814Y-76460149D01*
X178162814Y-76460149D02*
X178103290Y-76579196D01*
X178103290Y-76579196D02*
X178103290Y-76817291D01*
X178103290Y-76817291D02*
X178162814Y-76936339D01*
X178162814Y-76936339D02*
X178281861Y-76995863D01*
X178281861Y-76995863D02*
X178400909Y-76995863D01*
X178400909Y-76995863D02*
X178519957Y-76400625D01*
X178936623Y-77531578D02*
X178103290Y-77531578D01*
X177686623Y-77531578D02*
X177746147Y-77472054D01*
X177746147Y-77472054D02*
X177805671Y-77531578D01*
X177805671Y-77531578D02*
X177746147Y-77591101D01*
X177746147Y-77591101D02*
X177686623Y-77531578D01*
X177686623Y-77531578D02*
X177805671Y-77531578D01*
X178877100Y-78662530D02*
X178936623Y-78543482D01*
X178936623Y-78543482D02*
X178936623Y-78305387D01*
X178936623Y-78305387D02*
X178877100Y-78186339D01*
X178877100Y-78186339D02*
X178817576Y-78126816D01*
X178817576Y-78126816D02*
X178698528Y-78067292D01*
X178698528Y-78067292D02*
X178341385Y-78067292D01*
X178341385Y-78067292D02*
X178222338Y-78126816D01*
X178222338Y-78126816D02*
X178162814Y-78186339D01*
X178162814Y-78186339D02*
X178103290Y-78305387D01*
X178103290Y-78305387D02*
X178103290Y-78543482D01*
X178103290Y-78543482D02*
X178162814Y-78662530D01*
X178936623Y-79198245D02*
X177686623Y-79198245D01*
X178936623Y-79733959D02*
X178281861Y-79733959D01*
X178281861Y-79733959D02*
X178162814Y-79674435D01*
X178162814Y-79674435D02*
X178103290Y-79555387D01*
X178103290Y-79555387D02*
X178103290Y-79376816D01*
X178103290Y-79376816D02*
X178162814Y-79257768D01*
X178162814Y-79257768D02*
X178222338Y-79198245D01*
X178877100Y-80805387D02*
X178936623Y-80686339D01*
X178936623Y-80686339D02*
X178936623Y-80448244D01*
X178936623Y-80448244D02*
X178877100Y-80329197D01*
X178877100Y-80329197D02*
X178758052Y-80269673D01*
X178758052Y-80269673D02*
X178281861Y-80269673D01*
X178281861Y-80269673D02*
X178162814Y-80329197D01*
X178162814Y-80329197D02*
X178103290Y-80448244D01*
X178103290Y-80448244D02*
X178103290Y-80686339D01*
X178103290Y-80686339D02*
X178162814Y-80805387D01*
X178162814Y-80805387D02*
X178281861Y-80864911D01*
X178281861Y-80864911D02*
X178400909Y-80864911D01*
X178400909Y-80864911D02*
X178519957Y-80269673D01*
X178817576Y-81400626D02*
X178877100Y-81460149D01*
X178877100Y-81460149D02*
X178936623Y-81400626D01*
X178936623Y-81400626D02*
X178877100Y-81341102D01*
X178877100Y-81341102D02*
X178817576Y-81400626D01*
X178817576Y-81400626D02*
X178936623Y-81400626D01*
X178877100Y-82531578D02*
X178936623Y-82412530D01*
X178936623Y-82412530D02*
X178936623Y-82174435D01*
X178936623Y-82174435D02*
X178877100Y-82055387D01*
X178877100Y-82055387D02*
X178817576Y-81995864D01*
X178817576Y-81995864D02*
X178698528Y-81936340D01*
X178698528Y-81936340D02*
X178341385Y-81936340D01*
X178341385Y-81936340D02*
X178222338Y-81995864D01*
X178222338Y-81995864D02*
X178162814Y-82055387D01*
X178162814Y-82055387D02*
X178103290Y-82174435D01*
X178103290Y-82174435D02*
X178103290Y-82412530D01*
X178103290Y-82412530D02*
X178162814Y-82531578D01*
X178936623Y-83245864D02*
X178877100Y-83126816D01*
X178877100Y-83126816D02*
X178817576Y-83067293D01*
X178817576Y-83067293D02*
X178698528Y-83007769D01*
X178698528Y-83007769D02*
X178341385Y-83007769D01*
X178341385Y-83007769D02*
X178222338Y-83067293D01*
X178222338Y-83067293D02*
X178162814Y-83126816D01*
X178162814Y-83126816D02*
X178103290Y-83245864D01*
X178103290Y-83245864D02*
X178103290Y-83424435D01*
X178103290Y-83424435D02*
X178162814Y-83543483D01*
X178162814Y-83543483D02*
X178222338Y-83603007D01*
X178222338Y-83603007D02*
X178341385Y-83662531D01*
X178341385Y-83662531D02*
X178698528Y-83662531D01*
X178698528Y-83662531D02*
X178817576Y-83603007D01*
X178817576Y-83603007D02*
X178877100Y-83543483D01*
X178877100Y-83543483D02*
X178936623Y-83424435D01*
X178936623Y-83424435D02*
X178936623Y-83245864D01*
X178936623Y-84198245D02*
X178103290Y-84198245D01*
X178222338Y-84198245D02*
X178162814Y-84257768D01*
X178162814Y-84257768D02*
X178103290Y-84376816D01*
X178103290Y-84376816D02*
X178103290Y-84555387D01*
X178103290Y-84555387D02*
X178162814Y-84674435D01*
X178162814Y-84674435D02*
X178281861Y-84733959D01*
X178281861Y-84733959D02*
X178936623Y-84733959D01*
X178281861Y-84733959D02*
X178162814Y-84793483D01*
X178162814Y-84793483D02*
X178103290Y-84912530D01*
X178103290Y-84912530D02*
X178103290Y-85091102D01*
X178103290Y-85091102D02*
X178162814Y-85210149D01*
X178162814Y-85210149D02*
X178281861Y-85269673D01*
X178281861Y-85269673D02*
X178936623Y-85269673D01*
X177627100Y-86757769D02*
X179234242Y-85686340D01*
X178936623Y-87174436D02*
X178103290Y-87174436D01*
X178222338Y-87174436D02*
X178162814Y-87233959D01*
X178162814Y-87233959D02*
X178103290Y-87353007D01*
X178103290Y-87353007D02*
X178103290Y-87531578D01*
X178103290Y-87531578D02*
X178162814Y-87650626D01*
X178162814Y-87650626D02*
X178281861Y-87710150D01*
X178281861Y-87710150D02*
X178936623Y-87710150D01*
X178281861Y-87710150D02*
X178162814Y-87769674D01*
X178162814Y-87769674D02*
X178103290Y-87888721D01*
X178103290Y-87888721D02*
X178103290Y-88067293D01*
X178103290Y-88067293D02*
X178162814Y-88186340D01*
X178162814Y-88186340D02*
X178281861Y-88245864D01*
X178281861Y-88245864D02*
X178936623Y-88245864D01*
X178936623Y-89376817D02*
X178281861Y-89376817D01*
X178281861Y-89376817D02*
X178162814Y-89317293D01*
X178162814Y-89317293D02*
X178103290Y-89198245D01*
X178103290Y-89198245D02*
X178103290Y-88960150D01*
X178103290Y-88960150D02*
X178162814Y-88841103D01*
X178877100Y-89376817D02*
X178936623Y-89257769D01*
X178936623Y-89257769D02*
X178936623Y-88960150D01*
X178936623Y-88960150D02*
X178877100Y-88841103D01*
X178877100Y-88841103D02*
X178758052Y-88781579D01*
X178758052Y-88781579D02*
X178639004Y-88781579D01*
X178639004Y-88781579D02*
X178519957Y-88841103D01*
X178519957Y-88841103D02*
X178460433Y-88960150D01*
X178460433Y-88960150D02*
X178460433Y-89257769D01*
X178460433Y-89257769D02*
X178400909Y-89376817D01*
X178877100Y-90507769D02*
X178936623Y-90388721D01*
X178936623Y-90388721D02*
X178936623Y-90150626D01*
X178936623Y-90150626D02*
X178877100Y-90031578D01*
X178877100Y-90031578D02*
X178817576Y-89972055D01*
X178817576Y-89972055D02*
X178698528Y-89912531D01*
X178698528Y-89912531D02*
X178341385Y-89912531D01*
X178341385Y-89912531D02*
X178222338Y-89972055D01*
X178222338Y-89972055D02*
X178162814Y-90031578D01*
X178162814Y-90031578D02*
X178103290Y-90150626D01*
X178103290Y-90150626D02*
X178103290Y-90388721D01*
X178103290Y-90388721D02*
X178162814Y-90507769D01*
X178877100Y-90983960D02*
X178936623Y-91103007D01*
X178936623Y-91103007D02*
X178936623Y-91341103D01*
X178936623Y-91341103D02*
X178877100Y-91460150D01*
X178877100Y-91460150D02*
X178758052Y-91519674D01*
X178758052Y-91519674D02*
X178698528Y-91519674D01*
X178698528Y-91519674D02*
X178579480Y-91460150D01*
X178579480Y-91460150D02*
X178519957Y-91341103D01*
X178519957Y-91341103D02*
X178519957Y-91162531D01*
X178519957Y-91162531D02*
X178460433Y-91043484D01*
X178460433Y-91043484D02*
X178341385Y-90983960D01*
X178341385Y-90983960D02*
X178281861Y-90983960D01*
X178281861Y-90983960D02*
X178162814Y-91043484D01*
X178162814Y-91043484D02*
X178103290Y-91162531D01*
X178103290Y-91162531D02*
X178103290Y-91341103D01*
X178103290Y-91341103D02*
X178162814Y-91460150D01*
X178936623Y-92591103D02*
X178281861Y-92591103D01*
X178281861Y-92591103D02*
X178162814Y-92531579D01*
X178162814Y-92531579D02*
X178103290Y-92412531D01*
X178103290Y-92412531D02*
X178103290Y-92174436D01*
X178103290Y-92174436D02*
X178162814Y-92055389D01*
X178877100Y-92591103D02*
X178936623Y-92472055D01*
X178936623Y-92472055D02*
X178936623Y-92174436D01*
X178936623Y-92174436D02*
X178877100Y-92055389D01*
X178877100Y-92055389D02*
X178758052Y-91995865D01*
X178758052Y-91995865D02*
X178639004Y-91995865D01*
X178639004Y-91995865D02*
X178519957Y-92055389D01*
X178519957Y-92055389D02*
X178460433Y-92174436D01*
X178460433Y-92174436D02*
X178460433Y-92472055D01*
X178460433Y-92472055D02*
X178400909Y-92591103D01*
X178936623Y-93364912D02*
X178877100Y-93245864D01*
X178877100Y-93245864D02*
X178817576Y-93186341D01*
X178817576Y-93186341D02*
X178698528Y-93126817D01*
X178698528Y-93126817D02*
X178341385Y-93126817D01*
X178341385Y-93126817D02*
X178222338Y-93186341D01*
X178222338Y-93186341D02*
X178162814Y-93245864D01*
X178162814Y-93245864D02*
X178103290Y-93364912D01*
X178103290Y-93364912D02*
X178103290Y-93543483D01*
X178103290Y-93543483D02*
X178162814Y-93662531D01*
X178162814Y-93662531D02*
X178222338Y-93722055D01*
X178222338Y-93722055D02*
X178341385Y-93781579D01*
X178341385Y-93781579D02*
X178698528Y-93781579D01*
X178698528Y-93781579D02*
X178817576Y-93722055D01*
X178817576Y-93722055D02*
X178877100Y-93662531D01*
X178877100Y-93662531D02*
X178936623Y-93543483D01*
X178936623Y-93543483D02*
X178936623Y-93364912D01*
D13*
X162154510Y-106129400D02*
X163297368Y-106129400D01*
X162074510Y-97199400D02*
X163217368Y-97199400D01*
X162645939Y-97770828D02*
X162645939Y-96627971D01*
D12*
X158610326Y-101710552D02*
X158610326Y-102710552D01*
X158610326Y-101758171D02*
X158515088Y-101710552D01*
X158515088Y-101710552D02*
X158324612Y-101710552D01*
X158324612Y-101710552D02*
X158229374Y-101758171D01*
X158229374Y-101758171D02*
X158181755Y-101805790D01*
X158181755Y-101805790D02*
X158134136Y-101901028D01*
X158134136Y-101901028D02*
X158134136Y-102186742D01*
X158134136Y-102186742D02*
X158181755Y-102281980D01*
X158181755Y-102281980D02*
X158229374Y-102329600D01*
X158229374Y-102329600D02*
X158324612Y-102377219D01*
X158324612Y-102377219D02*
X158515088Y-102377219D01*
X158515088Y-102377219D02*
X158610326Y-102329600D01*
X157705564Y-102377219D02*
X157705564Y-101710552D01*
X157705564Y-101901028D02*
X157657945Y-101805790D01*
X157657945Y-101805790D02*
X157610326Y-101758171D01*
X157610326Y-101758171D02*
X157515088Y-101710552D01*
X157515088Y-101710552D02*
X157419850Y-101710552D01*
X156943659Y-102377219D02*
X157038897Y-102329600D01*
X157038897Y-102329600D02*
X157086516Y-102281980D01*
X157086516Y-102281980D02*
X157134135Y-102186742D01*
X157134135Y-102186742D02*
X157134135Y-101901028D01*
X157134135Y-101901028D02*
X157086516Y-101805790D01*
X157086516Y-101805790D02*
X157038897Y-101758171D01*
X157038897Y-101758171D02*
X156943659Y-101710552D01*
X156943659Y-101710552D02*
X156800802Y-101710552D01*
X156800802Y-101710552D02*
X156705564Y-101758171D01*
X156705564Y-101758171D02*
X156657945Y-101805790D01*
X156657945Y-101805790D02*
X156610326Y-101901028D01*
X156610326Y-101901028D02*
X156610326Y-102186742D01*
X156610326Y-102186742D02*
X156657945Y-102281980D01*
X156657945Y-102281980D02*
X156705564Y-102329600D01*
X156705564Y-102329600D02*
X156800802Y-102377219D01*
X156800802Y-102377219D02*
X156943659Y-102377219D01*
X155753183Y-101710552D02*
X155753183Y-102520076D01*
X155753183Y-102520076D02*
X155800802Y-102615314D01*
X155800802Y-102615314D02*
X155848421Y-102662933D01*
X155848421Y-102662933D02*
X155943659Y-102710552D01*
X155943659Y-102710552D02*
X156086516Y-102710552D01*
X156086516Y-102710552D02*
X156181754Y-102662933D01*
X155753183Y-102329600D02*
X155848421Y-102377219D01*
X155848421Y-102377219D02*
X156038897Y-102377219D01*
X156038897Y-102377219D02*
X156134135Y-102329600D01*
X156134135Y-102329600D02*
X156181754Y-102281980D01*
X156181754Y-102281980D02*
X156229373Y-102186742D01*
X156229373Y-102186742D02*
X156229373Y-101901028D01*
X156229373Y-101901028D02*
X156181754Y-101805790D01*
X156181754Y-101805790D02*
X156134135Y-101758171D01*
X156134135Y-101758171D02*
X156038897Y-101710552D01*
X156038897Y-101710552D02*
X155848421Y-101710552D01*
X155848421Y-101710552D02*
X155753183Y-101758171D01*
D11*
%TO.C,SW1*%
X158410000Y-103495000D02*
X158870000Y-103495000D01*
X158460000Y-105035000D02*
X158460000Y-104955000D01*
X158720000Y-104995000D02*
X159480000Y-104995000D01*
X159320000Y-103495000D02*
X159780000Y-103495000D01*
X159670000Y-104225000D02*
X158530000Y-104225000D01*
X159730000Y-105035000D02*
X159730000Y-104955000D01*
D14*
%TO.C,U3*%
X176000000Y-96870000D02*
X177700000Y-96870000D01*
X176000000Y-97920000D02*
X176000000Y-98880000D01*
X176000000Y-99930000D02*
X177700000Y-99930000D01*
D13*
X178140000Y-96750000D02*
G75*
G02*
X177840000Y-96750000I-150000J0D01*
G01*
X177840000Y-96750000D02*
G75*
G02*
X178140000Y-96750000I150000J0D01*
G01*
D15*
%TO.C,C1*%
X173135000Y-98681252D02*
X173135000Y-98158748D01*
X174605000Y-98681252D02*
X174605000Y-98158748D01*
%TO.C,J1*%
X162470000Y-104250000D02*
X162470000Y-99050000D01*
X163040000Y-99050000D02*
X162470000Y-99050000D01*
X163040000Y-99050000D02*
X163040000Y-97610000D01*
X163040000Y-104250000D02*
X162470000Y-104250000D01*
X165580000Y-99050000D02*
X164560000Y-99050000D01*
X165580000Y-104250000D02*
X164560000Y-104250000D01*
X168120000Y-99050000D02*
X167100000Y-99050000D01*
X168120000Y-104250000D02*
X167100000Y-104250000D01*
X170210000Y-99050000D02*
X169640000Y-99050000D01*
X170210000Y-104250000D02*
X169640000Y-104250000D01*
X170210000Y-104250000D02*
X170210000Y-99050000D01*
D11*
%TO.C,U2*%
X173600000Y-100860000D02*
X174670000Y-100860000D01*
X173600000Y-105970000D02*
X173600000Y-100860000D01*
X175580000Y-100890000D02*
X176520000Y-100890000D01*
X176520000Y-100890000D02*
X176520000Y-100910000D01*
X176520000Y-100910000D02*
X176520000Y-105970000D01*
X176520000Y-105970000D02*
X173600000Y-105970000D01*
X175585272Y-100892627D02*
G75*
G02*
X174670000Y-100860000I-455272J82627D01*
G01*
X177210000Y-100730000D02*
G75*
G02*
X177050000Y-100730000I-80000J0D01*
G01*
X177050000Y-100730000D02*
G75*
G02*
X177210000Y-100730000I80000J0D01*
G01*
D15*
%TO.C,R1*%
X160215000Y-98727064D02*
X160215000Y-98272936D01*
X161685000Y-98727064D02*
X161685000Y-98272936D01*
%TO.C,C2*%
X171135000Y-98681252D02*
X171135000Y-98158748D01*
X172605000Y-98681252D02*
X172605000Y-98158748D01*
%TO.C,JP1*%
X158920000Y-102390000D02*
X158920000Y-101790000D01*
X159620000Y-101090000D02*
X161020000Y-101090000D01*
X161020000Y-103090000D02*
X159620000Y-103090000D01*
X161720000Y-101790000D02*
X161720000Y-102390000D01*
X158920000Y-101790000D02*
G75*
G02*
X159620000Y-101090000I700000J0D01*
G01*
X159620000Y-103090000D02*
G75*
G02*
X158920000Y-102390000I0J700000D01*
G01*
X161020000Y-101090000D02*
G75*
G02*
X161720000Y-101790000I1J-699999D01*
G01*
X161720000Y-102390000D02*
G75*
G02*
X161020000Y-103090000I-699999J-1D01*
G01*
%TD*%
M02*
